HIERARCHY
ROOT hip
{
  OFFSET 0 0 0
  CHANNELS 6 Xposition Yposition Zposition Zrotation Yrotation Xrotation
  JOINT abdomen
  {
    OFFSET 0 20.6881 -0.73152
    CHANNELS 3 Zrotation Xrotation Yrotation
    JOINT chest
    {
      OFFSET 0 11.7043 -0.48768
      CHANNELS 3 Zrotation Xrotation Yrotation
      JOINT neck
      {
        OFFSET 0 22.1894 -2.19456
        CHANNELS 3 Zrotation Xrotation Yrotation
        JOINT head
        {
          OFFSET -0.24384 7.07133 1.2192
          CHANNELS 3 Zrotation Xrotation Yrotation
          JOINT leftEye
          {
            OFFSET 4.14528 8.04674 8.04672
            CHANNELS 3 Zrotation Xrotation Yrotation
            End Site
            {
              OFFSET 1 0 0
            }
          }
          JOINT rightEye
          {
            OFFSET -3.6576 8.04674 8.04672
            CHANNELS 3 Zrotation Xrotation Yrotation
            End Site
            {
              OFFSET 1 0 0
            }
          }
        }
      }
      JOINT rCollar
      {
        OFFSET -2.68224 19.2634 -4.8768
        CHANNELS 3 Zrotation Xrotation Yrotation
        JOINT rShldr
        {
          OFFSET -8.77824 -1.95073 1.46304
          CHANNELS 3 Zrotation Xrotation Yrotation
          JOINT rForeArm
          {
            OFFSET -28.1742 -1.7115 0.48768
            CHANNELS 3 Zrotation Xrotation Yrotation
            JOINT rHand
            {
              OFFSET -22.5879 0.773209 7.07136
              CHANNELS 3 Zrotation Xrotation Yrotation
              JOINT rThumb1
              {
                OFFSET -1.2192 -0.487915 3.41376
                CHANNELS 3 Zrotation Xrotation Yrotation
                JOINT rThumb2
                {
                  OFFSET -3.37035 -0.52449 3.41376
                  CHANNELS 3 Zrotation Xrotation Yrotation
                  End Site
                  {
                    OFFSET -1.78271 -1.18214 1.43049
                  }
                }
              }
              JOINT rIndex1
              {
                OFFSET -7.75947 0.938293 5.60832
                CHANNELS 3 Zrotation Xrotation Yrotation
                JOINT rIndex2
                {
                  OFFSET -2.54057 -0.884171 1.56538
                  CHANNELS 3 Zrotation Xrotation Yrotation
                  End Site
                  {
                    OFFSET -1.62519 -0.234802 1.16502
                  }
                }
              }
              JOINT rMid1
              {
                OFFSET -8.24714 1.18213 3.41376
                CHANNELS 3 Zrotation Xrotation Yrotation
                JOINT rMid2
                {
                  OFFSET -3.10165 -0.590103 1.0647
                  CHANNELS 3 Zrotation Xrotation Yrotation
                  End Site
                  {
                    OFFSET -2.48547 -0.328903 0.83742
                  }
                }
              }
              JOINT rRing1
              {
                OFFSET -8.82822 0.546677 1.51678
                CHANNELS 3 Zrotation Xrotation Yrotation
                JOINT rRing2
                {
                  OFFSET -2.60934 -0.819778 -0.0198488
                  CHANNELS 3 Zrotation Xrotation Yrotation
                  End Site
                  {
                    OFFSET -2.33842 -0.294052 0.168128
                  }
                }
              }
              JOINT rPinky1
              {
                OFFSET -8.27202 -0.0477905 -0.4584
                CHANNELS 3 Zrotation Xrotation Yrotation
                JOINT rPinky2
                {
                  OFFSET -1.82734 -0.647385 -0.700984
                  CHANNELS 3 Zrotation Xrotation Yrotation
                  End Site
                  {
                    OFFSET -1.69225 -0.51767 -0.607171
                  }
                }
              }
            }
          }
        }
      }
      JOINT lCollar
      {
        OFFSET 2.68224 19.2634 -4.8768
        CHANNELS 3 Zrotation Xrotation Yrotation
        JOINT lShldr
        {
          OFFSET 8.77824 -1.95073 1.46304
          CHANNELS 3 Zrotation Xrotation Yrotation
          JOINT lForeArm
          {
            OFFSET 28.1742 -1.7115 0.48768
            CHANNELS 3 Zrotation Xrotation Yrotation
            JOINT lHand
            {
              OFFSET 22.5879 0.773209 7.07136
              CHANNELS 3 Zrotation Xrotation Yrotation
              JOINT lThumb1
              {
                OFFSET 1.2192 -0.487915 3.41376
                CHANNELS 3 Zrotation Xrotation Yrotation
                JOINT lThumb2
                {
                  OFFSET 3.37035 -0.52449 3.41376
                  CHANNELS 3 Zrotation Xrotation Yrotation
                  End Site
                  {
                    OFFSET 1.78271 -1.18214 1.43049
                  }
                }
              }
              JOINT lIndex1
              {
                OFFSET 7.75947 0.938293 5.60832
                CHANNELS 3 Zrotation Xrotation Yrotation
                JOINT lIndex2
                {
                  OFFSET 2.54057 -0.884171 1.56538
                  CHANNELS 3 Zrotation Xrotation Yrotation
                  End Site
                  {
                    OFFSET 1.62519 -0.234802 1.16502
                  }
                }
              }
              JOINT lMid1
              {
                OFFSET 8.24714 1.18213 3.41376
                CHANNELS 3 Zrotation Xrotation Yrotation
                JOINT lMid2
                {
                  OFFSET 3.10165 -0.590103 1.0647
                  CHANNELS 3 Zrotation Xrotation Yrotation
                  End Site
                  {
                    OFFSET 2.48547 -0.328903 0.83742
                  }
                }
              }
              JOINT lRing1
              {
                OFFSET 8.82822 0.546677 1.51678
                CHANNELS 3 Zrotation Xrotation Yrotation
                JOINT lRing2
                {
                  OFFSET 2.60934 -0.819778 -0.0198488
                  CHANNELS 3 Zrotation Xrotation Yrotation
                  End Site
                  {
                    OFFSET 2.33842 -0.294052 0.168128
                  }
                }
              }
              JOINT lPinky1
              {
                OFFSET 8.27202 -0.0477905 -0.4584
                CHANNELS 3 Zrotation Xrotation Yrotation
                JOINT lPinky2
                {
                  OFFSET 1.82734 -0.647385 -0.700984
                  CHANNELS 3 Zrotation Xrotation Yrotation
                  End Site
                  {
                    OFFSET 1.69225 -0.51767 -0.607171
                  }
                }
              }
            }
          }
        }
      }
    }
  }
  JOINT rButtock
  {
    OFFSET -8.77824 4.35084 1.2192
    CHANNELS 3 Zrotation Xrotation Yrotation
    JOINT rThigh
    {
      OFFSET 0 -1.70687 -2.19456
      CHANNELS 3 Zrotation Xrotation Yrotation
      JOINT rShin
      {
        OFFSET 0 -36.8199 0.73152
        CHANNELS 3 Zrotation Xrotation Yrotation
        JOINT rFoot
        {
          OFFSET 0.73152 -45.1104 -5.12064
          CHANNELS 3 Zrotation Xrotation Yrotation
          End Site
          {
            OFFSET -1.1221 -3.69964 12.103
          }
        }
      }
    }
  }
  JOINT lButtock
  {
    OFFSET 8.77824 4.35084 1.2192
    CHANNELS 3 Zrotation Xrotation Yrotation
    JOINT lThigh
    {
      OFFSET 0 -1.70687 -2.19456
      CHANNELS 3 Zrotation Xrotation Yrotation
      JOINT lShin
      {
        OFFSET 0 -36.8199 0.73152
        CHANNELS 3 Zrotation Xrotation Yrotation
        JOINT lFoot
        {
          OFFSET -0.73152 -45.1104 -5.12064
          CHANNELS 3 Zrotation Xrotation Yrotation
          End Site
          {
            OFFSET 1.1221 -3.69964 12.103
          }
        }
      }
    }
  }
}
MOTION
Frames:	4
Frame Time:	0.03333
0.0 0.0 0.0 0.0 0.0 0.0 0.0 0.0 0.0 0.0 0.0 0.0 0.0 0.0 0.0 0.0 0.0 0.0 0.0 0.0 0.0 0.0 0.0 0.0 0.0 0.0 0.0 0.0 0.0 0.0 0.0 0.0 0.0 0.0 0.0 0.0 0.0 0.0 0.0 0.0 0.0 0.0 0.0 0.0 0.0 0.0 0.0 0.0 0.0 0.0 0.0 0.0 0.0 0.0 0.0 0.0 0.0 0.0 0.0 0.0 0.0 0.0 0.0 0.0 0.0 0.0 0.0 0.0 0.0 0.0 0.0 0.0 0.0 0.0 0.0 0.0 0.0 0.0 0.0 0.0 0.0 0.0 0.0 0.0 0.0 0.0 0.0 0.0 0.0 0.0 0.0 0.0 0.0 0.0 0.0 0.0 0.0 0.0 0.0 0.0 0.0 0.0 0.0 0.0 0.0 0.0 0.0 0.0 0.0 0.0 0.0 0.0 0.0 0.0 0.0 0.0 0.0 0.0 0.0 0.0 0.0 0.0 0.0 0.0 0.0 0.0 0.0 0.0 0.0 0.0 0.0 0.0
0.2763 56.7587 -0.0665 173.516447 62.136541 178.729518 -8.450584 7.966056 -53.058171 8.061 -2.515164 54.556878 -8.129154 15.388148 -10.271885 12.371185 -22.761306 -10.233951 0.001519 -0.0 -0.002183 0.002153 0.0 0.002876 -13.947243 42.750367 15.784625 56.400655 -18.552103 36.547032 176.921997 13.01489 58.099619 169.241495 -19.139933 143.583454 51.059768 -41.203859 12.856985 -141.531 -5.769028 118.220462 -0.327523 0.529922 0.186179 -158.274515 -8.934092 110.076908 1.02556 -3.03546 -0.55027 -154.08939 20.054943 138.720726 -75.673532 -72.116359 -92.828858 -150.973733 -0.717725 176.52106 0.099926 0.258024 0.091679 -138.059896 -13.346788 -135.73678 157.760423 -21.736625 -165.397718 42.965049 21.946557 14.749675 1.817431 -18.955636 138.955691 171.706022 -0.73548 -142.383897 -174.055116 -22.871391 -88.063361 -127.428839 -66.848586 -97.166433 145.338143 -6.264526 -118.677868 -7.64807 4.961153 8.891021 153.077659 14.206833 -138.691104 151.554479 24.805942 -136.797744 77.125345 -72.086508 94.351111 -13.25145 37.83472 -0.741614 -0.550649 1.455635 -0.508989 156.065462 43.503418 149.194678 -0.005686 0.00126 -0.002843 -46.60894 -59.015048 26.30034 76.670661 12.231303 2.227389 -172.602664 -76.900337 90.063616 0.000937 0.000651 -0.0 11.549814 4.050545 91.962971 54.989409 3.002301 87.367251 -21.390227 32.328579 -135.216241
0.3591 56.625099999999996 -0.046 173.768765 62.104733 178.758235 -10.327847 8.962619 -0.0 4.812671 -8.870579 1.874412 -14.117989 21.035924 -55.196359 32.519928 -5.495102 34.801779 -0.004074 -0.0 0.001516 -0.004074 -0.0 0.001516 4.239171 -44.742762 -8.647846 -49.309634 -66.538987 -92.470546 0.726051 -45.682184 -123.067835 165.637001 -28.121435 141.751127 93.028805 -51.083734 40.500413 -151.680461 -1.774774 114.418606 -108.426941 34.161332 91.743526 46.077123 -53.903668 5.950122 -151.476524 17.841426 137.538021 -155.792767 15.486887 139.547927 -145.111562 -0.626913 -178.930691 -54.750736 87.582228 68.014325 -152.875588 39.992165 -148.057839 0.869613 -2.31026 -2.597653 136.302565 48.980046 -140.374139 95.235184 28.600456 -66.288202 -5.239555 -17.537326 136.721781 169.203491 6.680733 -140.871858 166.74428 -4.418578 -89.781316 164.710538 -5.427288 -84.634375 5.796356 8.772425 -3.567061 162.050008 -12.912217 -110.116308 -68.980184 -80.155324 -40.574112 2.379373 14.686853 -2.83236 0.018491 -1.643567 0.51779 155.316456 -1.622589 -172.046097 161.708993 70.564529 151.021431 76.830918 -53.457013 75.565111 0.0 0.00136 -0.00067 -43.507052 -60.487641 -117.214981 -84.836815 13.347391 -76.072117 91.908017 15.86088 -176.225513 0.00026 -0.000354 -0.000335 14.021953 4.06094 -103.009199 -53.647591 -12.530684 -120.333675 -34.665276 -0.584632 -105.939306
0.4488 56.493 -0.09380000000000001 174.14327 62.180205 179.105397 -10.348643 8.927087 0.0 4.868896 -8.83175 1.903339 6.433938 22.032548 83.250237 -31.826554 3.615307 -106.520277 -0.00167 0.0 -0.003878 0.004029 -0.0 -0.004454 -143.620316 38.233454 148.080783 -90.583193 49.068283 70.829833 10.309578 -45.749569 -116.302815 168.229067 -21.732556 143.135599 -172.670449 -10.349909 89.930957 -39.26006 -22.770848 5.229827 -4.707542 7.223503 2.856096 96.460261 -61.339094 44.083178 -36.034887 51.723325 29.832449 173.316956 -58.972472 136.978007 -145.112117 -0.66903 -178.918709 12.190802 44.667381 -3.867701 14.766538 51.319298 11.786225 0.637341 -2.570094 -1.247841 158.467928 -30.055665 -166.919494 50.839047 -11.411941 22.964422 5.874259 13.275539 135.035166 172.698513 -4.338492 -143.012553 -93.028394 -51.083334 -40.500987 15.920234 -45.57652 30.706258 -1.340036 -2.204783 0.73958 160.720575 -12.936714 -110.157522 36.03649 51.723198 -29.831844 -3.333864 0.217895 -0.100582 145.118277 0.267525 179.212928 -12.114669 40.325531 4.41086 144.260951 9.238386 141.008071 80.641746 -52.560959 80.202894 -0.004041 0.001247 -0.002021 -43.880525 -59.210866 -48.225591 -28.097547 69.931855 5.823591 -7.160076 -15.89791 46.704758 -0.004041 0.001247 -0.002021 14.244986 4.502684 -86.793626 -55.340176 -4.313194 -85.693975 -17.98323 34.506526 -145.687446
